<svg width="24" height="24" viewBox="0 0 24 24" fill="none" xmlns="http://www.w3.org/2000/svg">
<g clip-path="url(#clip0_44_195)">
<path d="M5.09091 10.1818C7.90254 10.1818 10.1818 7.90254 10.1818 5.09091C10.1818 2.27928 7.90254 0 5.09091 0C2.27928 0 0 2.27928 0 5.09091C0 7.90254 2.27928 10.1818 5.09091 10.1818Z" fill="#CCCAC9"/>
<path d="M18.9091 10.1818C21.7208 10.1818 24.0001 7.90254 24.0001 5.09091C24.0001 2.27928 21.7208 0 18.9091 0C16.0975 0 13.8182 2.27928 13.8182 5.09091C13.8182 7.90254 16.0975 10.1818 18.9091 10.1818Z" fill="#CCCAC9"/>
<path d="M5.09091 24C7.90254 24 10.1818 21.7207 10.1818 18.9091C10.1818 16.0975 7.90254 13.8182 5.09091 13.8182C2.27928 13.8182 0 16.0975 0 18.9091C0 21.7207 2.27928 24 5.09091 24Z" fill="#CCCAC9"/>
<path d="M18.9091 24C21.7208 24 24.0001 21.7207 24.0001 18.9091C24.0001 16.0975 21.7208 13.8182 18.9091 13.8182C16.0975 13.8182 13.8182 16.0975 13.8182 18.9091C13.8182 21.7207 16.0975 24 18.9091 24Z" fill="#CCCAC9"/>
</g>
<defs>
<clipPath id="clip0_44_195">
<rect width="24" height="24" fill="white"/>
</clipPath>
</defs>
</svg>
