<svg width="24" height="24" viewBox="0 0 24 24" fill="none" xmlns="http://www.w3.org/2000/svg">
<g clip-path="url(#clip0_44_217)">
<path d="M-5.2403e-07 11.9884C-2.35155e-07 5.37971 5.37971 -8.13919e-07 12.0116 -5.2403e-07C18.6203 -2.35155e-07 24 5.37971 24 11.9884C24 18.6203 18.6203 23.9768 12.0116 23.9768C5.37971 24 -8.13919e-07 18.6203 -5.2403e-07 11.9884Z" fill="white"/>
<path d="M7.67538 11.9884C7.67538 11.5942 7.8377 11.2232 8.11596 10.9681L13.4029 5.79709C13.9826 5.24057 14.887 5.26376 15.4435 5.82028C16 6.39999 15.9768 7.30434 15.4203 7.86086L11.2 11.9884L15.4203 16.1159C16 16.6725 16 17.5768 15.4435 18.1565C14.887 18.7362 13.9826 18.7362 13.4029 18.1797L8.11596 13.0319C7.8377 12.7536 7.67538 12.3826 7.67538 11.9884Z" fill="#7A7A7A"/>
</g>
<defs>
<clipPath id="clip0_44_217">
<rect width="24" height="24" fill="white" transform="translate(24) rotate(90)"/>
</clipPath>
</defs>
</svg>
