<svg width="48" height="48" viewBox="0 0 48 48" fill="none" xmlns="http://www.w3.org/2000/svg">
<g clip-path="url(#clip0_44_161)">
<path d="M23.907 14C27.1761 14 30.4452 14 33.7143 14C35.1229 14 36 14.7973 36 15.9934C36 17.2159 35.1495 18.0133 33.7143 18.0133C27.2292 18.0133 20.7176 18.0133 14.2326 18.0133C12.7176 18.0133 12 17.3223 12 15.9934C12 14.6645 12.7176 14 14.2326 14C17.4485 14 20.691 14 23.907 14Z" fill="white"/>
<path d="M24.0399 29.4153C27.2292 29.4153 30.4186 29.4153 33.5814 29.4153C35.1495 29.4153 36 30.1329 36 31.4086C36 32.6578 35.1229 33.4286 33.608 33.4286C27.2027 33.4286 20.7973 33.4286 14.3654 33.4286C12.7708 33.4286 12 32.7641 12 31.4086C12 30.0532 12.7442 29.4153 14.3654 29.4153C17.5814 29.4153 20.8239 29.4153 24.0399 29.4153Z" fill="white"/>
<path d="M21.8073 25.7209C19.2292 25.7209 16.6777 25.7209 14.0997 25.7209C12.6379 25.7209 12.0266 25.1362 12 23.7807C12 22.3455 12.6113 21.7076 14.1262 21.7076C19.309 21.7076 24.4917 21.7076 29.6744 21.7076C31.1628 21.7076 31.8007 22.3455 31.7741 23.7807C31.7475 25.1362 31.1362 25.7209 29.6744 25.7209C27.0432 25.7209 24.4385 25.7209 21.8073 25.7209Z" fill="white"/>
</g>
<defs>
<clipPath id="clip0_44_161">
<rect width="24" height="19.4286" fill="white" transform="translate(12 14)"/>
</clipPath>
</defs>
</svg>
