<svg width="24" height="24" viewBox="0 0 24 24" fill="none" xmlns="http://www.w3.org/2000/svg">
<g clip-path="url(#clip0_44_175)">
<path d="M8.71642 23.8806L8.23881 20.0597C8 19.9403 7.76119 19.8209 7.52239 19.7015C7.28358 19.5821 7.04478 19.4627 6.80597 19.2239L3.22388 20.6567L0 15.0448L3.10448 12.7761C3.10448 12.6567 3.10448 12.5373 3.10448 12.4179V11.5821C3.10448 11.4627 3.10448 11.3433 3.10448 11.2239L0 8.83582L3.34328 3.10448L6.92537 4.53731C7.16418 4.41791 7.40299 4.1791 7.64179 4.0597C7.8806 3.9403 8.1194 3.8209 8.35821 3.70149L8.71642 0H15.2836L15.7612 3.8209C16 3.9403 16.2388 4.0597 16.4776 4.1791C16.7164 4.29851 16.9552 4.41791 17.194 4.65672L20.7761 3.22388L24.1194 8.95522L21.0149 11.2239C21.0149 11.3433 21.0149 11.4627 21.0149 11.5821V12.4179C21.0149 12.5373 21.0149 12.6567 20.8955 12.7761L24 15.0448L20.6567 20.7761L17.0746 19.3433C16.8358 19.4627 16.597 19.7015 16.3582 19.8209C16.1194 19.9403 15.8806 20.0597 15.6418 20.1791L15.2836 23.8806H8.71642ZM12.0597 16.1194C13.2537 16.1194 14.209 15.7612 15.0448 14.9254C15.8806 14.0896 16.2388 13.1343 16.2388 11.9403C16.2388 10.7463 15.8806 9.79104 15.0448 8.95522C14.209 8.1194 13.2537 7.76119 12.0597 7.76119C10.8657 7.76119 9.91045 8.1194 9.07463 8.95522C8.23881 9.79104 7.8806 10.7463 7.8806 11.9403C7.8806 13.1343 8.23881 14.0896 9.07463 14.9254C9.91045 15.7612 10.8657 16.1194 12.0597 16.1194Z" fill="white"/>
</g>
<defs>
<clipPath id="clip0_44_175">
<rect width="24" height="23.8806" fill="white"/>
</clipPath>
</defs>
</svg>
