<svg width="24" height="24" viewBox="0 0 24 24" fill="none" xmlns="http://www.w3.org/2000/svg">
<g clip-path="url(#clip0_44_171)">
<path d="M23.7152 22.3729L16.5559 15.2136C19.5254 11.5525 19.322 6.14237 15.905 2.72542C14.1559 0.976271 11.7966 0 9.31522 0C6.83386 0 4.47454 0.976271 2.72539 2.72542C-0.894953 6.34576 -0.894953 12.2847 2.72539 15.9051C4.47454 17.6542 6.83386 18.6305 9.31522 18.6305C11.4711 18.6305 13.5457 17.8983 15.2135 16.5559L22.3728 23.7153C22.5762 23.9186 22.8203 24 23.0644 24C23.3084 24 23.5525 23.9186 23.7559 23.7153C24.0813 23.3492 24.0813 22.739 23.7152 22.3729ZM4.06776 14.5627C1.17962 11.6746 1.17962 6.95593 4.06776 4.0678C5.45081 2.68475 7.322 1.91186 9.31522 1.91186C11.3084 1.91186 13.1796 2.68475 14.5627 4.0678C17.4508 6.95593 17.4508 11.6746 14.5627 14.5627C13.1796 15.9458 11.3084 16.7186 9.31522 16.7186C7.322 16.7593 5.49149 15.9864 4.06776 14.5627Z" fill="#E7E7E8"/>
<path d="M5.97959 4.14916C5.49145 4.35255 5.28806 4.92204 5.53213 5.41018C5.73552 5.89831 6.30501 6.1017 6.79315 5.85763C6.83383 5.85763 9.76264 4.55594 12.4881 7.03729C12.6508 7.20001 12.8948 7.28136 13.1389 7.28136C13.383 7.28136 13.6677 7.15933 13.8304 6.95594C14.1965 6.54916 14.1559 5.97967 13.7898 5.61356C10.0881 2.31865 6.1423 4.0678 5.97959 4.14916Z" fill="#E7E7E8"/>
</g>
<defs>
<clipPath id="clip0_44_171">
<rect width="24" height="24" fill="white"/>
</clipPath>
</defs>
</svg>
